<svg xmlns="http://www.w3.org/2000/svg" viewBox="0 0 1440 320" preserveAspectRatio="none">
  <defs>
    <linearGradient id="wave-gradient" x1="0%" y1="0%" x2="0%" y2="100%">
      <stop offset="0%" stop-color="#ffffff" stop-opacity="0.1" />
      <stop offset="100%" stop-color="#ffffff" stop-opacity="1" />
    </linearGradient>
  </defs>
  <path 
    d="M0,96L48,112C96,128,192,160,288,165.3C384,171,480,149,576,154.7C672,160,768,192,864,197.3C960,203,1056,181,1152,154.7C1248,128,1344,96,1392,80L1440,64L1440,320L1392,320C1344,320,1248,320,1152,320C1056,320,960,320,864,320C768,320,672,320,576,320C480,320,384,320,288,320C192,320,96,320,48,320L0,320Z"
    fill="url(#wave-gradient)"
  />
</svg>
